<svg width="61" height="61" viewBox="0 0 61 61" fill="none" xmlns="http://www.w3.org/2000/svg">
<path d="M30.5006 5.08398C16.5215 5.08398 5.08398 16.5215 5.08398 30.5006C5.08398 44.4798 16.5215 55.9173 30.5006 55.9173C44.4798 55.9173 55.9173 44.4798 55.9173 30.5006C55.9173 16.5215 44.4798 5.08398 30.5006 5.08398ZM41.1757 26.1798L28.9756 38.3798C27.959 39.3965 26.434 39.3965 25.4173 38.3798L19.8257 32.7881C18.809 31.7715 18.809 30.2465 19.8257 29.2298C20.8423 28.2132 22.3673 28.2132 23.384 29.2298L27.1965 33.0423L37.6173 22.6215C38.634 21.6048 40.159 21.6048 41.1757 22.6215C42.1923 23.6381 42.1923 25.1632 41.1757 26.1798Z" fill="#0AC655"/>
</svg>
