<svg width="18" height="22" viewBox="0 0 18 22" fill="none" xmlns="http://www.w3.org/2000/svg">
<path d="M8.75537 10.7074C11.5424 10.7074 13.8018 8.4784 13.8018 5.72872C13.8018 2.97905 11.5424 0.75 8.75537 0.75C5.96833 0.75 3.70898 2.97905 3.70898 5.72872C3.70898 8.4784 5.96833 10.7074 8.75537 10.7074Z" stroke="#686868" stroke-width="1.5" stroke-linecap="round" stroke-linejoin="round"/>
<path fill-rule="evenodd" clip-rule="evenodd" d="M0.750017 17.631C0.748678 17.281 0.828018 16.9353 0.982053 16.62C1.46543 15.6662 2.82854 15.1607 3.95963 14.9318C4.77538 14.76 5.60239 14.6453 6.4345 14.5884C7.97511 14.4549 9.52462 14.4549 11.0652 14.5884C11.8973 14.6459 12.7242 14.7607 13.5401 14.9318C14.6712 15.1607 16.0343 15.6185 16.5177 16.62C16.8274 17.2627 16.8274 18.0088 16.5177 18.6515C16.0343 19.653 14.6712 20.1108 13.5401 20.3302C12.7253 20.5091 11.898 20.627 11.0652 20.6831C9.81129 20.788 8.55151 20.8071 7.29491 20.7403C7.00489 20.7403 6.72453 20.7403 6.4345 20.6831C5.60484 20.6277 4.7807 20.5097 3.9693 20.3302C2.82854 20.1108 1.47509 19.653 0.982053 18.6515C0.828805 18.3326 0.749544 17.984 0.750017 17.631Z" stroke="#686868" stroke-width="1.5" stroke-linecap="round" stroke-linejoin="round"/>
</svg>
