<svg width="28" height="28" viewBox="0 0 28 28" fill="none" xmlns="http://www.w3.org/2000/svg">
<path d="M23.3333 15.1667H4.66667C4.35725 15.1667 4.0605 15.0437 3.84171 14.825C3.62292 14.6062 3.5 14.3094 3.5 14C3.5 13.6906 3.62292 13.3938 3.84171 13.175C4.0605 12.9562 4.35725 12.8333 4.66667 12.8333H23.3333C23.6428 12.8333 23.9395 12.9562 24.1583 13.175C24.3771 13.3938 24.5 13.6906 24.5 14C24.5 14.3094 24.3771 14.6062 24.1583 14.825C23.9395 15.0437 23.6428 15.1667 23.3333 15.1667ZM23.3333 10.5C23.0239 10.5 22.7272 10.3771 22.5084 10.1583C22.2896 9.9395 22.1667 9.64275 22.1667 9.33333V7C22.1667 6.69058 22.0438 6.39383 21.825 6.17504C21.6062 5.95625 21.3094 5.83333 21 5.83333H18.6667C18.3572 5.83333 18.0605 5.71042 17.8417 5.49162C17.6229 5.27283 17.5 4.97609 17.5 4.66667C17.5 4.35725 17.6229 4.0605 17.8417 3.84171C18.0605 3.62292 18.3572 3.5 18.6667 3.5H21C21.9283 3.5 22.8185 3.86875 23.4749 4.52513C24.1313 5.1815 24.5 6.07174 24.5 7V9.33333C24.5 9.64275 24.3771 9.9395 24.1583 10.1583C23.9395 10.3771 23.6428 10.5 23.3333 10.5ZM4.66667 10.5C4.35725 10.5 4.0605 10.3771 3.84171 10.1583C3.62292 9.9395 3.5 9.64275 3.5 9.33333V7C3.5 6.07174 3.86875 5.1815 4.52513 4.52513C5.1815 3.86875 6.07174 3.5 7 3.5H9.33333C9.64275 3.5 9.9395 3.62292 10.1583 3.84171C10.3771 4.0605 10.5 4.35725 10.5 4.66667C10.5 4.97609 10.3771 5.27283 10.1583 5.49162C9.9395 5.71042 9.64275 5.83333 9.33333 5.83333H7C6.69058 5.83333 6.39383 5.95625 6.17504 6.17504C5.95625 6.39383 5.83333 6.69058 5.83333 7V9.33333C5.83333 9.64275 5.71042 9.9395 5.49162 10.1583C5.27283 10.3771 4.97609 10.5 4.66667 10.5ZM9.33333 24.5H7C6.07174 24.5 5.1815 24.1313 4.52513 23.4749C3.86875 22.8185 3.5 21.9283 3.5 21V18.6667C3.5 18.3572 3.62292 18.0605 3.84171 17.8417C4.0605 17.6229 4.35725 17.5 4.66667 17.5C4.97609 17.5 5.27283 17.6229 5.49162 17.8417C5.71042 18.0605 5.83333 18.3572 5.83333 18.6667V21C5.83333 21.3094 5.95625 21.6062 6.17504 21.825C6.39383 22.0438 6.69058 22.1667 7 22.1667H9.33333C9.64275 22.1667 9.9395 22.2896 10.1583 22.5084C10.3771 22.7272 10.5 23.0239 10.5 23.3333C10.5 23.6428 10.3771 23.9395 10.1583 24.1583C9.9395 24.3771 9.64275 24.5 9.33333 24.5ZM21 24.5H18.6667C18.3572 24.5 18.0605 24.3771 17.8417 24.1583C17.6229 23.9395 17.5 23.6428 17.5 23.3333C17.5 23.0239 17.6229 22.7272 17.8417 22.5084C18.0605 22.2896 18.3572 22.1667 18.6667 22.1667H21C21.3094 22.1667 21.6062 22.0438 21.825 21.825C22.0438 21.6062 22.1667 21.3094 22.1667 21V18.6667C22.1667 18.3572 22.2896 18.0605 22.5084 17.8417C22.7272 17.6229 23.0239 17.5 23.3333 17.5C23.6428 17.5 23.9395 17.6229 24.1583 17.8417C24.3771 18.0605 24.5 18.3572 24.5 18.6667V21C24.5 21.9283 24.1313 22.8185 23.4749 23.4749C22.8185 24.1313 21.9283 24.5 21 24.5Z" fill="#686868"/>
</svg>
