<svg width="43" height="43" viewBox="0 0 43 43" fill="none" xmlns="http://www.w3.org/2000/svg">
<path d="M24.1875 14.7812C24.1875 13.3031 22.9781 12.0938 21.5 12.0938C20.0219 12.0938 18.8125 13.3031 18.8125 14.7812V17.4688H24.1875V14.7812Z" fill="#0AC655"/>
<path d="M5.375 9.40586V20.1559C5.375 31.309 11.2875 34.6684 19.35 39.2371L20.8281 40.0434C21.0969 40.3121 21.2312 40.3121 21.5 40.3121C21.7687 40.3121 21.9031 40.3121 22.1719 40.1777L23.65 39.3715C31.7125 34.6684 37.625 31.309 37.625 20.1559V9.40586C37.625 8.86836 37.2219 8.33086 36.6844 8.19648L21.9031 2.82148C21.6344 2.68711 21.2313 2.68711 20.9625 2.82148L6.18125 8.19648C5.77812 8.33086 5.375 8.86836 5.375 9.40586ZM13.4375 21.4996C13.4375 19.7527 14.5125 18.2746 16.125 17.7371V14.7809C16.125 11.8246 18.5437 9.40586 21.5 9.40586C24.4562 9.40586 26.875 11.8246 26.875 14.7809V17.7371C28.4875 18.2746 29.5625 19.7527 29.5625 21.4996V25.5309C29.5625 29.9652 25.9344 33.5934 21.5 33.5934C17.0656 33.5934 13.4375 29.9652 13.4375 25.5309V21.4996Z" fill="#0AC655"/>
<path d="M21.5 21.5C20.6937 21.5 20.1562 22.0375 20.1562 22.8438V25.5312C20.1562 26.3375 20.6937 26.875 21.5 26.875C22.3063 26.875 22.8438 26.3375 22.8438 25.5312V22.8438C22.8438 22.0375 22.3063 21.5 21.5 21.5Z" fill="#0AC655"/>
</svg>
